<?xml version="1.0" standalone="no"?><!DOCTYPE svg PUBLIC "-//W3C//DTD SVG 1.1//EN" "http://www.w3.org/Graphics/SVG/1.1/DTD/svg11.dtd"><svg t="1732777150227" class="icon" viewBox="0 0 1024 1024" version="1.1" xmlns="http://www.w3.org/2000/svg" p-id="51573" xmlns:xlink="http://www.w3.org/1999/xlink" width="200" height="200"><path d="M235.239681 324.521085h553.692542v426.036351c0 46.586086-24.857373 71.214254-71.649745 71.237174h-34.128749c0 49.348017 0.538634 97.320799-0.194825 145.2592-0.446951 29.739457-26.152386 54.424926-55.605336 55.502193-31.641866 1.146029-60.521801-20.777509-61.64491-51.147282-1.810726-49.107351-0.481332-98.340765-0.481332-148.571224h-106.145224v58.573551c-0.068762 28.765333 0.550094 57.553586-0.492792 86.284538-1.019966 28.123556-23.138329 51.112902-50.425285 54.56245-28.937237 3.655833-55.994986-13.099114-64.590205-40.477751a65.690393 65.690393 0 0 1-3.059898-18.943863c-0.263587-40.867401-0.194825-81.757722-0.080222-122.625123 0-5.604083 0.962665-11.208165 1.627362-18.405229-13.75235 0-27.264034 0.068762-40.775719 0-39.962038-0.286507-65.9769-26.198227-66.011281-66.297788q-0.160444-210.06715 0-420.157221zM648.64679 85.883427c3.105739-4.733101 5.730146-8.835885 8.480616-12.915749q18.198944-27.401558 36.466649-54.780195c3.609992-5.397797 4.584117-10.784135-1.146029-14.990062-6.326081-4.664339-11.345689-1.615901-15.29949 4.034023-1.730504 2.486883-3.380786 5.019608-5.053989 7.540872l-42.219715 63.249351c-3.208882-0.974125-5.730146-1.650282-8.159728-2.498344C553.354463 52.052646 484.592712 50.906617 415.361089 71.05381c-21.774555 6.337541-21.774555 6.349002-34.380876-12.606321-10.314263-15.414093-20.548303-30.851106-30.942788-46.207897-4.343451-6.406303-8.366013-15.815203-18.210404-9.088012-9.168234 6.222938-2.544185 13.259558 1.5586 19.482496 5.821828 8.847345 11.746799 17.614469 17.591548 26.450354 8.022204 12.147909 16.044409 24.307279 24.295819 36.810458C294.351867 128.217746 239.846719 187.799803 234.758349 283.653684h554.41454c-5.076909-96.140389-60.017549-155.848509-140.526099-197.770257zM393.666756 204.910019a29.498791 29.498791 0 0 1-30.083266-28.914317c-0.286507-15.941266 13.133494-29.716537 29.223744-30.025964a29.407109 29.407109 0 0 1 29.796759 29.154982 28.879936 28.879936 0 0 1-28.937237 29.785299z m236.700869 0a28.914316 28.914316 0 0 1-29.143523-29.567553 29.407109 29.407109 0 0 1 29.670696-29.315427 29.980124 29.980124 0 0 1 29.372728 29.85406 29.372728 29.372728 0 0 1-29.899901 29.005999z" fill="#3366FF" p-id="51574"></path><path d="M946.923807 510.177814c0 41.257051 0.103143 82.433879 0 123.645089-0.137524 36.283284-25.075119 62.481511-59.135106 62.44713s-59.192408-26.358671-59.226789-62.44713q-0.126063-125.329752 0.068762-250.693885c0.080222-30.770884 22.622616-55.456352 52.362074-58.550631 30.942788-3.220342 58.09222 15.975647 64.647506 46.184976 1.260632 5.833289 1.249172 12.010386 1.260632 18.038499q0.160444 60.739547 0 121.375952zM195.15158 510.177814c0 43.113618 0.40111 86.227236-0.160444 129.317933-0.343809 26.427433-18.943862 48.68332-44.271107 55.158385-24.75423 6.314621-51.903662-3.953801-64.578745-26.461814-5.168592-9.168234-8.904647-20.548303-8.996329-30.942788-0.710538-84.725938-0.618856-169.428955-0.286508-254.131972a58.665234 58.665234 0 0 1 59.24971-58.986123c32.913958 0 58.642314 25.212642 59.009042 58.997583 0.481332 42.345778 0.126063 84.703017 0.126064 127.048796z" fill="#AEC9FF" p-id="51575"></path></svg>