<?xml version="1.0" standalone="no"?><!DOCTYPE svg PUBLIC "-//W3C//DTD SVG 1.1//EN" "http://www.w3.org/Graphics/SVG/1.1/DTD/svg11.dtd"><svg t="1695017395969" class="icon" viewBox="0 0 1024 1024" version="1.1" xmlns="http://www.w3.org/2000/svg" p-id="36883" xmlns:xlink="http://www.w3.org/1999/xlink" width="200" height="200"><path d="M234.666 1013.308c-41.172 0-74.672-33.468-74.672-74.624V85.33c0-41.17 33.5-74.654 74.672-74.654h554.636c41.188 0 74.688 33.484 74.688 74.654v853.356c0 41.154-33.5 74.624-74.688 74.624H234.666z" fill="#434A54" p-id="36884"></path><path d="M170.666 106.674h680.98v768.012H170.666z" fill="#5D9CEC" p-id="36885"></path><path d="M789.302 0.004H234.666c-47.14 0-85.344 38.204-85.344 85.326v853.356c0 47.124 38.204 85.31 85.344 85.31h554.636c47.124 0 85.376-38.188 85.376-85.31V85.33c0-47.122-38.25-85.326-85.376-85.326z m64 938.682c0 35.248-28.688 63.998-64 63.998H234.666c-35.296 0-64-28.75-64-63.998V85.33c0-35.28 28.704-63.998 64-63.998h554.636c35.312 0 64 28.718 64 63.998v853.356z" fill="#656D78" p-id="36886"></path><path d="M554.68 938.686c0 23.562-19.124 42.624-42.688 42.624s-42.672-19.06-42.672-42.624 19.11-42.688 42.672-42.688 42.688 19.126 42.688 42.688z" fill="#656D78" p-id="36887"></path><path d="M511.992 64.002m-21.328 0a21.328 21.328 0 1 0 42.656 0 21.328 21.328 0 1 0-42.656 0Z" fill="#5D9CEC" p-id="36888"></path><path d="M634.68 874.686h-165.36l127.984-768.044h165.374z" fill="#FFFFFF" opacity=".1" p-id="36889"></path></svg>