<?xml version="1.0" standalone="no"?><!DOCTYPE svg PUBLIC "-//W3C//DTD SVG 1.1//EN" "http://www.w3.org/Graphics/SVG/1.1/DTD/svg11.dtd"><svg t="1695017423548" class="icon" viewBox="0 0 1024 1024" version="1.1" xmlns="http://www.w3.org/2000/svg" p-id="37466" xmlns:xlink="http://www.w3.org/1999/xlink" width="200" height="200"><path d="M213.33 128.002c-11.782 0-21.328 9.546-21.328 21.328v42.672c0 11.782 9.546 21.328 21.328 21.328s21.344-9.546 21.344-21.328V149.33c0-11.782-9.562-21.328-21.344-21.328zM213.33 234.674c-11.782 0-21.328 9.546-21.328 21.328v85.328c0 11.782 9.546 21.344 21.328 21.344s21.344-9.562 21.344-21.344v-85.328c0-11.782-9.562-21.328-21.344-21.328zM213.33 384.002c-11.782 0-21.328 9.546-21.328 21.326v85.344c0 11.782 9.546 21.328 21.328 21.328s21.344-9.546 21.344-21.328v-85.344c0-11.78-9.562-21.326-21.344-21.326z" fill="#434A54" p-id="37467"></path><path d="M810.686 256.002c-11.812 0-21.376 9.546-21.376 21.328v85.344c0 11.782 9.562 21.328 21.376 21.328 11.75 0 21.312-9.546 21.312-21.328v-85.344c0-11.782-9.562-21.328-21.312-21.328zM298.674 1002.652c-35.296 0-64-28.688-64-63.998V85.33c0-35.28 28.704-63.998 64-63.998h426.636c35.312 0 64 28.718 64 63.998v853.324c0 35.31-28.688 63.998-64 63.998H298.674z" fill="#434A54" p-id="37468"></path><path d="M234.674 149.33h554.636v682.668H234.674z" fill="#5D9CEC" p-id="37469"></path><path d="M725.31 0.004H298.674c-47.14 0-85.344 38.204-85.344 85.326v853.324c0 47.124 38.204 85.342 85.344 85.342h426.636c47.156 0 85.376-38.218 85.376-85.342V85.33c0-47.122-38.22-85.326-85.376-85.326z m64 938.65c0 35.31-28.688 63.998-64 63.998H298.674c-35.296 0-64-28.688-64-63.998V85.33c0-35.28 28.704-63.998 64-63.998h426.636c35.312 0 64 28.718 64 63.998v853.324z" fill="#656D78" p-id="37470"></path><path d="M512 853.342c-35.344 0-64 28.656-64 64s28.656 63.998 64 63.998c35.342 0 64-28.654 64-63.998s-28.656-64-64-64z m0 85.312c-11.766 0-21.328-9.562-21.328-21.312 0-11.782 9.562-21.344 21.328-21.344 11.764 0 21.328 9.562 21.328 21.344 0 11.75-9.562 21.312-21.328 21.312z" fill="#656D78" p-id="37471"></path><path d="M426.672 85.33c0 11.782-9.562 21.344-21.344 21.344S384 97.112 384 85.33s9.546-21.328 21.328-21.328 21.344 9.546 21.344 21.328z" fill="#5D9CEC" p-id="37472"></path><path d="M554.688 64.002h-85.358c-11.782 0-21.328 9.546-21.328 21.328s9.546 21.344 21.328 21.344h85.358c11.75 0 21.312-9.562 21.312-21.344s-9.562-21.328-21.312-21.328z" opacity=".2" p-id="37473"></path><path d="M509.33 832.216h-122.658l128.002-682.886h122.638z" fill="#FFFFFF" opacity=".1" p-id="37474"></path></svg>