<?xml version="1.0" standalone="no"?><!DOCTYPE svg PUBLIC "-//W3C//DTD SVG 1.1//EN" "http://www.w3.org/Graphics/SVG/1.1/DTD/svg11.dtd"><svg t="1732777743993" class="icon" viewBox="0 0 1024 1024" version="1.1" xmlns="http://www.w3.org/2000/svg" p-id="19893" xmlns:xlink="http://www.w3.org/1999/xlink" width="200" height="200"><path d="M750.933333 538.666667c0.810667 83.370667 47.786667 130.816 81.322667 154.154666 17.834667 12.373333 28.544 34.261333 20.224 54.357334a475.52 475.52 0 0 1-46.08 85.546666c-35.541333 51.968-72.448 103.765333-130.56 104.832-57.173333 1.066667-75.52-33.877333-140.842667-33.877333-65.322667 0-85.76 32.810667-139.818666 34.944-56.149333 2.133333-98.901333-56.234667-134.741334-108.032-73.301333-105.941333-129.28-299.349333-54.101333-429.909333 37.376-64.853333 104.106667-105.898667 176.597333-106.965334 55.125333-1.066667 107.093333 37.077333 140.8 37.077334s96.896-45.866667 163.413334-39.125334c22.826667 0.938667 79.530667 7.936 126.890666 51.029334 17.92 16.341333 11.52 44.16-5.802666 61.184-26.325333 25.941333-57.856 70.4-57.258667 134.826666z" fill="#000000" p-id="19894"></path><path d="M643.584 221.568c21.845333-26.453333 38.485333-60.501333 43.605333-96.512a29.013333 29.013333 0 0 0-38.229333-32.256c-32.341333 10.666667-64.853333 31.616-86.698667 57.173333-21.162667 24.490667-40.277333 60.16-45.141333 97.578667-2.602667 19.968 14.506667 36.224 34.218667 32 35.882667-7.765333 69.546667-30.549333 92.245333-57.984z" fill="#9F9F9F" p-id="19895"></path></svg>