<?xml version="1.0" standalone="no"?><!DOCTYPE svg PUBLIC "-//W3C//DTD SVG 1.1//EN" "http://www.w3.org/Graphics/SVG/1.1/DTD/svg11.dtd"><svg t="1695017387047" class="icon" viewBox="0 0 1024 1024" version="1.1" xmlns="http://www.w3.org/2000/svg" p-id="36592" xmlns:xlink="http://www.w3.org/1999/xlink" width="200" height="200"><path d="M110.658 230.682h801.712v441.326H110.658z" fill="#5D9CEC" p-id="36593"></path><path d="M895.996 202.682H128.002c-23.562 0-42.672 19.11-42.672 42.672v533.342h853.354V245.354c0-23.562-19.126-42.672-42.688-42.672z m0 554.638H128.002V245.354h767.994V757.32z" fill="#434A54" p-id="36594"></path><path d="M1023.996 778.696c0 23.56-19.124 42.624-42.688 42.624H42.674c-23.578 0-42.67-19.062-42.67-42.624v-64h1023.994v64z" fill="#656D78" p-id="36595"></path><path d="M103.048 672.008h809.322v42.688H103.048z" fill="#434A54" p-id="36596"></path><path d="M549.312 672.008H384l128-426.654h165.312z" fill="#FFFFFF" opacity=".1" p-id="36597"></path><path d="M608 714.696H394.672v21.312c0 11.812 9.546 21.312 21.328 21.312h192c11.782 0 21.312-9.5 21.312-21.312v-21.312H608z" fill="#AAB2BC" p-id="36598"></path></svg>